<?xml version="1.0" encoding="UTF-8"?>
<svg id="Layer_1" xmlns="http://www.w3.org/2000/svg" version="1.1" viewBox="0 0 300 300">
  <!-- Generator: Adobe Illustrator 29.0.1, SVG Export Plug-In . SVG Version: 2.1.0 Build 192)  -->
  <path d="M98.8,133.46c-9.42,15.95-31.29,28.52-50.07,21.71-12.85-5.26-19-20.7-16.37-33.78,1.93-13.07,10.49-23.04,19.3-32.15,6.61-6.86,14.04-12.65,21.93-18,8.22-5.33,18.1-7.97,27.87-8,5.58.08,11.31-.07,16.41,2.77,5.95,3.69,9.65,10.74,9.23,17.74-.23,3.54-1.41,6.72-2.58,9.89-1.07,2.96-2.42,6.09-3.93,8.89-1.3,2.56-2.9,4.64-3.03,7.39-.4,6.35,3.63,11.08,10.07,11.28,3.49.16,6.42-2.51,9.36-4.27,2.61-1.76,5.17-3.34,7.4-5.41,2.26-2.03,4.31-4.34,6.11-6.87.1-.14.28-.17.42-.07.12.09.16.25.1.38-2.68,5.76-7.2,10.57-12.19,14.44-2.65,2.1-4.9,4.3-8.32,5.5-10.06,2.58-18.72-4.85-18.52-15.09-.1-3.59,1.77-7.06,3.24-10.01,2.34-5.17,4.74-10.83,5.45-16.45.23-6.23-3.95-12.79-10.45-13.61-8.72-1.48-17.86-1.09-26.32,1.63-5.85,1.76-10.98,4.82-16.14,8.13-5.25,3.27-10.24,6.88-14.65,11.19-6.54,6.46-13.05,13.37-15.82,22.26-2.59,8.38-2.5,18.11,1.81,25.77,2.65,5.12,6.67,9.35,11.7,11.57,11.03,4.28,23.6.32,33.49-5.41,5.2-3.11,9.92-7.08,14.03-11.76.23-.29.67.06.49.35h0Z"/>
  <path d="M187.69,89.32c-11.99,4.62-20.54,13.07-27.83,23.28-7.39,10.03-13.32,21.01-19.96,31.56-6.59,10.69-13.6,21.1-20.4,31.68-3.43,5.33-7.05,10.84-11.46,15.48-7.45,8.41-16.51,15.27-26.15,20.96-12.3,7.53-26.37,11.8-40.75,12.84-8.81.59-16.68,1.06-24.29-4.39-7.62-4.84-12.44-13.68-11.19-22.98.87-5.73,5.8-11.74,12.09-11.38,4.08.25,8.26,2.48,9.45,6.71,1.02,4.13-1.35,8.43-5.23,9.83-2.62.87-6.32.9-7.97-1.8-1.43-2.57.16-5.73,2.29-7.12.34-.23.75.24.45.53-3.45,4.01-1.04,7.97,4.01,5.5,1.95-.99,3.19-3.73,2.35-5.7-1.24-2.86-5.85-3.76-8.28-1.81-4.15,3.28-3.91,9.12-2.08,13.88,1.78,4.9,6.19,8.8,11.19,11.64,4.97,2.87,11.42,2.8,17.14,3.25,6.13.25,12.39-.18,18.39-1.63,15.11-3.7,28.06-13.49,38.38-24.84,3.95-4.52,7.92-9.45,11.2-14.49,4.56-7.31,9.93-16.76,14.51-24.14,6.56-10.76,13.33-21.32,20.4-31.76,7.25-10.51,15.22-21.02,25.8-28.41,5.4-3.65,11.48-6.16,17.72-7.35.19-.04.37.09.41.28.03.17-.06.33-.21.39h0Z"/>
  <path d="M138.5,143.9c4.97-.19,9.89-.36,14.78-.66,4.13-.34,10.38-.43,14.2-1.4,4.48-1.09,7.95-3.78,11.55-6.69,3.71-3.07,7.48-6.26,11.32-9.32,9.66-7.5,19.42-15.35,27.98-24.15,5.54-5.14,10.8-10.19,16.84-14.93,4.19-3.06,8.45-5.65,13.18-7.81,5.89-2.71,12.63-3.91,19.17-3.91,6.88-.21,14.37,1.03,19.77,5.81,6.63,5.72,9.36,15.13,7.75,23.57-1.64,8.13-7.32,14.87-13.89,19.46-6.44,4.1-13.31,7.35-20.64,9.29-.41.1-.6-.46-.26-.65,4.36-2.38,8.46-4.99,12.38-7.9,3.88-2.81,7.55-5.6,10.3-9.46,2.9-3.82,4.91-7.67,5.41-11.84.95-8.09-3.13-17.04-11.11-19.85-3.85-1.48-8.53-1.66-13.33-1.66-4.55.02-9.08.89-13.52,2.38-9.27,3.03-17.58,7.96-25.05,14.23-7.75,6.11-14.09,13.8-20.77,21.05-6.75,7.41-13.7,14.43-21.68,20.58-10.19,8.34-17.2,8.12-29.67,6.93-4.98-.44-9.94-1.19-14.8-2.37-.19-.05-.31-.24-.26-.43.04-.16.18-.26.33-.27h0Z"/>
  <path d="M138.56,144.79c4.08.31,7.89.09,11.81-.76,3.25-.72,7.21-1.64,9.91,1.42,1.68,1.72,2.73,3.39,4.05,5.16.26.39.37.48.65.95,1.12,1.93,1.5,4.14,1.83,6.03.34,2.32.62,4.55.44,6.96-1.27,6.88-2.49,13.63-5.47,20.03-.72,2.14-1.97,5.5-2.65,7.64-.5,1.73-1.12,3.93-1.36,5.6-.56,3.5.18,7.63.85,11.24,1.97,11.86,13.44,20.18,25.25,15.8,2.49-.85,4.88-2.1,7.01-3.7.15-.12.38-.09.5.07.11.15.09.35-.05.47-4.06,3.67-9.35,6.31-15.13,6.46-5.84.18-11.52-2.46-15.59-6.62-4.12-4.2-6.09-9.89-7.22-15.53-.98-3.99-1.06-8.95-.02-13.08.24-1.25.55-2.98.88-4.17.47-1.86.88-3.98,1.26-5.88,1.49-4.5,2.49-8.97,3.39-13.61.46-2.5,1.61-4.68,1.63-7.08-.02-1.19-.11-2.49-.24-3.7-.17-1.4-.35-2.7-.78-3.73-.28-.55-1.12-1.92-1.44-2.5-.8-1.36-1.62-2.75-2.45-3.69-1.3-.64-3.14-.32-4.88-.43-1.41-.03-2.85-.11-4.26-.29-2.84-.41-5.59-1.17-8.09-2.4-.34-.14-.2-.73.18-.68h0Z"/>
</svg>