<?xml version="1.0" encoding="UTF-8"?>
<svg id="Layer_1" xmlns="http://www.w3.org/2000/svg" version="1.1" viewBox="0 0 300 300">
  <!-- Generator: Adobe Illustrator 29.0.1, SVG Export Plug-In . SVG Version: 2.1.0 Build 192)  -->
  <defs>
    <style>
      .st0 {
        fill: #e7e0d6;
      }
    </style>
  </defs>
  <path class="st0" d="M64.39,297.34c-1.21,0-2.38-.6-3.11-1.61-.72-.99-.9-2.2-.52-3.4l33.82-104.13c.66-1.98-.04-4.14-1.74-5.38L4.27,118.48c-1.66-1.2-1.81-2.99-1.4-4.26.41-1.27,1.58-2.63,3.64-2.63h109.5c2.07,0,3.9-1.33,4.56-3.32L154.42,4.14c.63-1.95,2.27-2.64,3.61-2.64.28,0,.55.03.82.09v229.8c-.27-.05-.55-.07-.83-.07-1.02,0-2,.32-2.81.93l-88.6,64.34c-.67.49-1.44.75-2.22.75Z"/>
  <path class="st0" d="M158.03,2c.11,0,.22,0,.32.01v228.81c-.11,0-.22-.01-.33-.01-1.13,0-2.21.36-3.1,1.02l-88.61,64.35c-.59.43-1.24.65-1.93.65-1.04,0-2.07-.54-2.71-1.4-.62-.86-.78-1.9-.44-2.95l33.82-104.12c.73-2.19-.04-4.58-1.92-5.94L4.56,118.08c-1.44-1.05-1.57-2.6-1.22-3.7.36-1.1,1.38-2.29,3.16-2.29h109.5c2.28,0,4.31-1.47,5.04-3.67L154.9,4.29c.54-1.69,1.97-2.29,3.13-2.29M158.03,1c-1.72,0-3.44.99-4.08,2.98l-33.85,104.13c-.59,1.77-2.22,2.98-4.09,2.98H6.51c-4.19,0-5.93,5.34-2.53,7.8l88.57,64.35c1.52,1.11,2.15,3.05,1.56,4.82l-33.82,104.13c-.98,3.03,1.42,5.66,4.1,5.66.84,0,1.71-.26,2.52-.85l88.6-64.35c.74-.55,1.63-.83,2.51-.83.45,0,.9.07,1.33.21V1.2c-.43-.13-.88-.2-1.32-.2h0Z"/>
</svg>