<?xml version="1.0" encoding="UTF-8"?>
<svg id="Layer_1" xmlns="http://www.w3.org/2000/svg" version="1.1" viewBox="0 0 300 300">
  <!-- Generator: Adobe Illustrator 29.0.1, SVG Export Plug-In . SVG Version: 2.1.0 Build 192)  -->
  <defs>
    <style>
      .st0 {
        fill: #e7e0d6;
      }
    </style>
  </defs>
  <path class="st0" d="M240.42,290.99c-.15,0-.3-.05-.43-.15l-88.74-64.48c-.3-.22-.65-.33-1.02-.33s-.72.12-1.02.33l-88.74,64.48c-.13.1-.28.15-.43.15-.24,0-.47-.12-.61-.32-.1-.13-.19-.36-.1-.66l33.9-104.32c.23-.72-.02-1.5-.63-1.95L3.83,119.26c-.32-.23-.35-.58-.27-.83s.31-.51.71-.51h109.69c.76,0,1.42-.48,1.66-1.2L149.52,12.39c.12-.38.45-.51.71-.51s.58.13.71.51l33.9,104.32c.24.72.9,1.2,1.66,1.2h109.69c.4,0,.62.27.71.51s.05.6-.27.83l-88.74,64.47c-.61.44-.87,1.23-.63,1.95l33.9,104.32c.1.3,0,.52-.1.66-.14.2-.38.32-.62.32Z"/>
  <path class="st0" d="M150.22,12.38c.18,0,.22.13.23.17l33.9,104.32c.3.93,1.16,1.55,2.13,1.55h109.69s.18,0,.23.17c.05.17-.05.25-.09.27l-88.74,64.48c-.79.57-1.12,1.58-.81,2.51l33.9,104.32c.03.08.02.15-.03.21-.05.07-.13.11-.21.11-.03,0-.07,0-.14-.05l-88.74-64.48c-.39-.28-.84-.43-1.32-.43s-.93.15-1.32.43l-88.74,64.48c-.06.05-.11.05-.14.05-.08,0-.16-.05-.21-.11-.04-.06-.05-.13-.03-.21l33.9-104.32c.3-.93-.03-1.93-.81-2.51L4.13,118.86s-.14-.1-.09-.27c.05-.17.19-.17.23-.17h109.69c.97,0,1.83-.62,2.13-1.55L149.99,12.55s.05-.17.23-.17M150.22,11.38c-.5,0-1,.29-1.18.86l-33.9,104.32c-.17.51-.64.86-1.18.86H4.27c-1.2,0-1.7,1.54-.73,2.25l88.74,64.48c.44.32.62.88.45,1.39l-33.9,104.32c-.28.87.41,1.63,1.19,1.63.24,0,.49-.07.73-.24l88.74-64.48c.22-.16.47-.24.73-.24s.51.08.73.24l88.74,64.48c.23.17.48.24.73.24.78,0,1.47-.76,1.19-1.63l-33.9-104.32c-.17-.51.02-1.07.45-1.39l88.74-64.48c.97-.71.47-2.25-.73-2.25h-109.69c-.54,0-1.02-.35-1.18-.86L151.41,12.24c-.19-.57-.68-.86-1.18-.86h0Z"/>
</svg>